# xmcd CD database file
#
# Track frame offsets:
#	150
#	20442
#	36082
#	51777
#	69900
#	89122
#	99527
#	115422
#	129720
#	148822
#	167262
#
# Disc length: 2433 seconds
#
# Revision: 2
# Processed by: cddbd v1.4b41PL1 Copyright (c) Steve Scherf et al.
# Submitted via: Feurio! 1.60 - http://www.feurio.com
#
DISCID=92097f0b,97097f0b
DTITLE=Melanie - Cowabonga Never Turn Your Back On A Wave
DYEAR=1900
DGENRE=
TTITLE0=Racing Heart
TTITLE1=What Have They Done To The Rain
TTITLE2=Only Goes To Show You
TTITLE3=Ruby Tuesday
TTITLE4=To Be A Star
TTITLE5=On The Lam From The Law
TTITLE6=Another Lie
TTITLE7=Prematurely Gray
TTITLE8=Chosen Few
TTITLE9=Window Pain
TTITLE10=Boy Next Door
EXTD=
EXTT0=
EXTT1=
EXTT2=
EXTT3=
EXTT4=
EXTT5=
EXTT6=
EXTT7=
EXTT8=
EXTT9=
EXTT10=
PLAYORDER=
